# xmcd CD database file
#
# Track frame offsets:
#	150
#	7534
#	33634
#	51696
#	71318
#	95909
#	116841
#	136693
#	158748
#	181104
#	200303
#	222900
#	247371
#	280976
#	321705
#
# Disc length: 4435 seconds
#
# Submitted via: cddb-tool 0.4.7
#
#blues,classical,country,data,folk,jazz,newage,reggae,rock,soundtrack,misc
#CATEGORY=misc
# Revision: 0
# Processed by: cddbd v1.5.2PL0 Copyright (c) Steve Scherf et al.
#
DISCID=e211510f
DTITLE=Blue October - Foiled For The Last Time [CD2] (Live)
DYEAR=2007
DGENRE=Rock
TTITLE0=For My Mother
TTITLE1=You Make Me Smile
TTITLE2=Sound Of Pulling Heaven Down
TTITLE3=What If We Could
TTITLE4=She's My Ride Home
TTITLE5=Let It Go
TTITLE6=Angel
TTITLE7=Drilled A Wire Through My Cheek
TTITLE8=Everlasting Friend
TTITLE9=Into The Ocean
TTITLE10=18th Floor Balcony
TTITLE11=Overweight
TTITLE12=X Amount Of Words
TTITLE13=Hate Me
TTITLE14=(Data Track)
EXTD=
EXTT0=
EXTT1=
EXTT2=
EXTT3=
EXTT4=
EXTT5=
EXTT6=
EXTT7=
EXTT8=
EXTT9=
EXTT10=
EXTT11=
EXTT12=
EXTT13=
EXTT14=
PLAYORDER=
